HIERARCHY
ROOT Hips
{
	OFFSET 0.000000 0.000000 0.000000
	CHANNELS 6 Xposition Yposition Zposition Zrotation Yrotation Xrotation 
	JOINT LowerBack
	{
		OFFSET 0.000000 0.000000 0.000000
		CHANNELS 3 Zrotation Yrotation Xrotation
		JOINT Spine
		{
			OFFSET 0.028270 2.035590 -0.193380
			CHANNELS 3 Zrotation Yrotation Xrotation
			JOINT Spine1
			{
				OFFSET 0.056720 2.048850 -0.042750
				CHANNELS 3 Zrotation Yrotation Xrotation
				JOINT Neck
				{
					OFFSET 0.000000 0.000000 0.000000
					CHANNELS 3 Zrotation Yrotation Xrotation
					JOINT Neck1
					{
						OFFSET -0.054170 1.746240 0.172020
						CHANNELS 3 Zrotation Yrotation Xrotation
						JOINT Head
						{
							OFFSET 0.104070 1.761360 -0.123970
							CHANNELS 3 Zrotation Yrotation Xrotation
							End Site
							{
								OFFSET 0.000000 0.000000 0.000000
							}
						}
					}
				}
				JOINT LeftShoulder
				{
					OFFSET 0.000000 0.000000 0.000000
					CHANNELS 3 Zrotation Yrotation Xrotation
					JOINT LeftArm
					{
						OFFSET 3.362410 1.200890 -0.311210
						CHANNELS 3 Zrotation Yrotation Xrotation
						JOINT LeftForeArm
						{
							OFFSET 4.983000 -0.000000 -0.000000
							CHANNELS 3 Zrotation Yrotation Xrotation
							JOINT LeftHand
							{
								OFFSET 3.483560 -0.000000 -0.000000
								CHANNELS 3 Zrotation Yrotation Xrotation
								JOINT LeftFingerBase
								{
									OFFSET 0.000000 0.000000 0.000000
									CHANNELS 3 Zrotation Yrotation Xrotation
									JOINT LeftHandIndex1
									{
										OFFSET 0.715260 -0.000000 -0.000000
										CHANNELS 3 Zrotation Yrotation Xrotation
										End Site
										{
											OFFSET 0.000000 0.000000 0.000000
										}
									}
								}
								JOINT LThumb
								{
									OFFSET 0.000000 0.000000 0.000000
									CHANNELS 3 Zrotation Yrotation Xrotation
									End Site
									{
										OFFSET 0.000000 0.000000 0.000000
									}
								}
							}
						}
					}
				}
				JOINT RightShoulder
				{
					OFFSET 0.000000 0.000000 0.000000
					CHANNELS 3 Zrotation Yrotation Xrotation
					JOINT RightArm
					{
						OFFSET -3.136600 1.374050 -0.404650
						CHANNELS 3 Zrotation Yrotation Xrotation
						JOINT RightForeArm
						{
							OFFSET -5.241900 -0.000000 -0.000000
							CHANNELS 3 Zrotation Yrotation Xrotation
							JOINT RightHand
							{
								OFFSET -3.444170 -0.000000 -0.000000
								CHANNELS 3 Zrotation Yrotation Xrotation
								JOINT RightFingerBase
								{
									OFFSET 0.000000 0.000000 0.000000
									CHANNELS 3 Zrotation Yrotation Xrotation
									JOINT RightHandIndex1
									{
										OFFSET -0.622530 -0.000000 -0.000000
										CHANNELS 3 Zrotation Yrotation Xrotation
										End Site
										{
											OFFSET 0.000000 0.000000 0.000000
										}
									}
								}
								JOINT RThumb
								{
									OFFSET 0.000000 0.000000 0.000000
									CHANNELS 3 Zrotation Yrotation Xrotation
									End Site
									{
										OFFSET 0.000000 0.000000 0.000000
									}
								}
							}
						}
					}
				}
			}
		}
	}
}
}
MOTION
Frames: 13
Frame Time: 0.008333
0.854856 17.108143 1.237143 7.526002 -79.133273 12.417546 -0.744461 -4.052939 -11.325974 -0.272207 -4.339915 -4.407758 -6.916443 -4.260742 1.430549 13.452971 -14.453277 -9.954841 -3.724572 -0.271971 -0.551716 0.000000 0.000000 0.000000 18.039732 5.872574 -1.743030 -88.539560 0.800870 28.949088 177.272056 -50.883561 179.730740 18.621312 -40.726015 -7.561130 -0.378561 2.327447 -0.000000 0.000000 0.000000 0.000000 0.000000 0.000000 0.000000 6.273075 -11.299060 -2.767935 78.941644 14.353961 19.474351 -179.364732 46.317467 179.765970 -49.836411 53.339802 -27.767708 0.921484 -2.264151 -0.000000 0.000000 0.000000 0.000000 0.000000 0.000000 0.000000 
0.840432 17.115063 1.280428 5.974845 -76.822280 14.373111 -0.602873 -3.926279 -11.851564 -0.237615 -4.234727 -4.476922 -6.818062 -4.162986 1.544230 13.166117 -13.864960 -9.795709 -3.766804 -0.276700 -0.512390 0.000000 0.000000 0.000000 18.280636 6.384054 -1.712012 -89.019264 -0.914038 30.872122 177.416813 -50.910589 179.734741 18.470495 -41.252334 -7.616323 -0.387385 2.389617 -0.000000 0.000000 0.000000 0.000000 0.000000 0.000000 0.000000 5.964344 -10.898109 -2.884830 78.263918 14.931842 17.995964 -179.339754 45.562488 179.767359 -50.519506 54.634626 -28.918965 0.898197 -2.296485 -0.000000 0.000000 0.000000 0.000000 0.000000 0.000000 0.000000 
0.830169 17.124004 1.324238 4.960476 -74.523567 15.750556 -0.487642 -3.776302 -12.345370 -0.209874 -4.101365 -4.546058 -6.697840 -4.037355 1.627022 12.810641 -13.185444 -9.564142 -3.802654 -0.281315 -0.454356 0.000000 0.000000 0.000000 18.415925 6.929511 -1.683478 -89.463212 -2.760061 32.760140 177.612920 -51.005773 179.739383 18.441574 -41.741096 -7.715056 -0.401799 2.449557 -0.000000 0.000000 0.000000 0.000000 0.000000 0.000000 0.000000 5.578901 -10.423648 -3.006274 77.388674 15.611477 16.253335 -179.311584 44.879660 179.768093 -50.861973 55.790164 -29.799177 0.869636 -2.321697 -0.000000 0.000000 0.000000 0.000000 0.000000 0.000000 0.000000 
0.824289 17.134929 1.368194 4.277374 -72.254309 16.751027 -0.399309 -3.598548 -12.803771 -0.189588 -3.934678 -4.616085 -6.556516 -3.878778 1.672152 12.382464 -12.411405 -9.251943 -3.830921 -0.285815 -0.375118 0.000000 0.000000 0.000000 18.420925 7.502369 -1.662076 -89.857502 -4.739550 34.604468 177.865986 -51.178255 179.744728 18.533536 -42.182057 -7.856948 -0.422050 2.506523 -0.000000 0.000000 0.000000 0.000000 0.000000 0.000000 0.000000 5.119375 -9.866242 -3.127298 76.254043 16.360377 14.198459 -179.272448 44.291318 179.767899 -50.853387 56.711750 -30.328528 0.838629 -2.336453 -0.000000 0.000000 0.000000 0.000000 0.000000 0.000000 0.000000 
0.822978 17.147861 1.410970 3.859181 -70.033950 17.426388 -0.358383 -3.391322 -13.207882 -0.181452 -3.729692 -4.684766 -6.397363 -3.681761 1.674520 11.886707 -11.546220 -8.854506 -3.851842 -0.290276 -0.273342 0.000000 0.000000 0.000000 18.289063 8.087581 -1.654548 -90.188726 -6.850719 36.391814 178.173864 -51.414558 179.750416 18.750440 -42.516687 -8.033933 -0.448852 2.558829 -0.000000 0.000000 0.000000 0.000000 0.000000 0.000000 0.000000 4.604446 -9.224094 -3.237303 74.801409 17.141512 11.792175 -179.217905 43.812437 179.766934 -50.570605 57.327157 -30.500876 0.809189 -2.338379 -0.000000 0.000000 0.000000 0.000000 0.000000 0.000000 0.000000 
0.826172 17.162604 1.452343 3.598992 -67.880123 17.882641 -0.350561 -3.149428 -13.558709 -0.183281 -3.482576 -4.752897 -6.221522 -3.442620 1.634420 11.328129 -10.598579 -8.374727 -3.861971 -0.294439 -0.149427 0.000000 0.000000 0.000000 17.997486 8.678267 -1.665578 -90.456460 -9.087621 38.101681 178.539126 -51.728123 179.756720 19.055866 -42.773500 -8.236145 -0.480684 2.606326 -0.000000 0.000000 0.000000 0.000000 0.000000 0.000000 0.000000 4.041835 -8.499257 -3.326969 72.971617 17.910699 9.008687 -179.141810 43.450596 179.765376 -50.164368 57.604607 -30.390191 0.784678 -2.325841 -0.000000 0.000000 0.000000 0.000000 0.000000 0.000000 0.000000 
0.833656 17.179068 1.490980 3.493763 -65.813917 18.110147 -0.392105 -2.873528 -13.836590 -0.198731 -3.191810 -4.816922 -6.033920 -3.159339 1.554157 10.720671 -9.583377 -7.819813 -3.859917 -0.298159 -0.005272 0.000000 0.000000 0.000000 17.541292 9.260907 -1.699111 -90.650127 -11.436928 39.716856 178.956281 -52.111033 179.763555 19.425438 -42.946207 -8.451323 -0.516598 2.648271 -0.000000 0.000000 0.000000 0.000000 0.000000 0.000000 0.000000 3.456342 -7.701105 -3.383391 70.728383 18.628729 5.838963 -179.046288 43.209369 179.763922 -49.823502 57.559423 -30.128927 0.768079 -2.298889 -0.000000 0.000000 0.000000 0.000000 0.000000 0.000000 0.000000 
0.844932 17.196936 1.526493 3.503893 -63.854849 18.149764 -0.470569 -2.563406 -14.039059 -0.224958 -2.858901 -4.875710 -5.834485 -2.833548 1.441075 10.069662 -8.520347 -7.205007 -3.842772 -0.301158 0.155285 0.000000 0.000000 0.000000 16.908172 9.830056 -1.754177 -90.764679 -13.876088 41.220501 179.415121 -52.547819 179.770916 19.834850 -43.027117 -8.666384 -0.555824 2.684186 -0.000000 0.000000 0.000000 0.000000 0.000000 0.000000 0.000000 2.855576 -6.839793 -3.398750 68.053947 19.262499 2.295028 -178.935558 43.097732 179.763247 -49.714808 57.248776 -29.859653 0.760443 -2.258407 -0.000000 0.000000 0.000000 0.000000 0.000000 0.000000 0.000000 
0.859860 17.215901 1.558780 3.585305 -62.021653 18.045541 -0.560850 -2.219651 -14.167290 -0.256052 -2.487909 -4.928334 -5.620726 -2.469600 1.304485 9.373106 -7.432011 -6.550057 -3.807864 -0.303163 0.327195 0.000000 0.000000 0.000000 16.086217 10.384761 -1.825831 -90.793998 -16.377131 42.593851 179.901913 -53.017163 179.778753 20.262338 -43.012756 -8.869525 -0.597629 2.713949 -0.000000 0.000000 0.000000 0.000000 0.000000 0.000000 0.000000 2.237444 -5.926481 -3.370639 64.954885 19.793384 -1.591555 -178.815911 43.134775 179.763983 -49.943945 56.759442 -29.697657 0.760883 -2.205899 -0.000000 0.000000 0.000000 0.000000 0.000000 0.000000 0.000000 
0.877909 17.235629 1.587649 3.727406 -60.331626 17.813567 -0.645096 -1.845884 -14.220333 -0.286972 -2.085217 -4.973101 -5.389386 -2.074026 1.154216 8.623677 -6.344158 -5.877199 -3.753807 -0.303988 0.504621 0.000000 0.000000 0.000000 15.073312 10.924020 -1.906702 -90.725711 -18.906780 43.814708 -179.600435 -53.493227 179.786858 20.688871 -42.910048 -9.052439 -0.640946 2.737701 -0.000000 0.000000 0.000000 0.000000 0.000000 0.000000 0.000000 1.597300 -4.976681 -3.301596 61.465380 20.221327 -5.770018 -178.695560 43.358719 179.766725 -50.542993 56.192523 -29.715931 0.766749 -2.142988 -0.000000 0.000000 0.000000 0.000000 0.000000 0.000000 0.000000 
0.898859 17.255824 1.613061 3.914917 -58.799749 17.473204 -0.698146 -1.446281 -14.198104 -0.310867 -1.658553 -5.008290 -5.135815 -1.654663 0.999395 7.803343 -5.283119 -5.210305 -3.680280 -0.303510 0.681250 0.000000 0.000000 0.000000 13.870497 11.451390 -1.987563 -90.543441 -21.430961 44.857051 -179.111159 -53.945752 179.794850 21.103669 -42.731218 -9.211513 -0.684686 2.755821 -0.000000 0.000000 0.000000 0.000000 0.000000 0.000000 0.000000 0.920066 -4.007667 -3.200753 57.643352 20.568578 -10.172564 -178.580694 43.833213 179.771763 -51.477369 55.648849 -29.944479 0.773736 -2.070797 -0.000000 0.000000 0.000000 0.000000 0.000000 0.000000 0.000000 
0.922404 17.276199 1.635247 4.135162 -57.436723 17.050099 -0.693967 -1.025681 -14.107525 -0.320550 -1.216453 -5.033343 -4.855845 -1.220063 0.847674 6.886493 -4.275198 -4.574677 -3.587856 -0.301651 0.850396 0.000000 0.000000 0.000000 12.487789 11.972446 -2.059116 -90.228188 -23.911741 45.690143 -178.650788 -54.345891 179.802243 21.496204 -42.496115 -9.345422 -0.727242 2.768608 -0.000000 0.000000 0.000000 0.000000 0.000000 0.000000 0.000000 0.181368 -3.039036 -3.082547 53.568768 20.871980 -14.717793 -178.473929 44.649748 179.778935 -52.665900 55.212771 -30.378719 0.776472 -1.989538 -0.000000 0.000000 0.000000 0.000000 0.000000 0.000000 0.000000 
0.948295 17.296533 1.654250 4.385322 -56.250635 16.558719 -0.611613 -0.589342 -13.947415 -0.310444 -0.767135 -5.046327 -4.550250 -0.778226 0.703578 5.848040 -3.341741 -3.994045 -3.478042 -0.298355 1.005610 0.000000 0.000000 0.000000 10.936458 12.497533 -2.111586 -89.754271 -26.319389 46.289928 -178.234982 -54.679669 179.808792 21.866248 -42.274151 -9.468945 -0.766420 2.777239 -0.000000 0.000000 0.000000 0.000000 0.000000 0.000000 0.000000 -0.643741 -2.090124 -2.964427 49.340015 21.180002 -19.314902 -178.374956 45.924263 179.787551 -53.999577 54.933046 -30.981871 0.769536 -1.898385 -0.000000 0.000000 0.000000 0.000000 0.000000 0.000000 0.000000 
